<svg width="81" height="69" viewBox="0 0 81 69" fill="none" xmlns="http://www.w3.org/2000/svg">
<path d="M38.8987 30.0962H48.969L53.6946 34.6401L53.8723 34.811H68.3245C69.1449 34.8111 69.9272 35.1252 70.5002 35.6763C71.0724 36.2265 71.3888 36.9675 71.3889 37.7349V56.5972C71.3889 57.3646 71.0726 58.1064 70.5002 58.6567C69.9272 59.2077 69.1448 59.5209 68.3245 59.521H38.8987C38.0784 59.5209 37.2959 59.2077 36.7229 58.6567C36.1506 58.1064 35.8342 57.3646 35.8342 56.5972V33.02C35.8342 32.2526 36.1506 31.5108 36.7229 30.9604C37.2959 30.4094 38.0783 30.0963 38.8987 30.0962ZM59.592 41.2622L52.2971 49.2788L48.7747 45.8901L48.3499 45.481L47.9241 45.8901L46.1887 47.5591L45.7288 48.0005L46.1887 48.4429L52.0198 54.0493L52.4739 54.4868L52.8977 54.02L62.343 43.6392L62.7717 43.1675L62.2844 42.7573L60.4407 41.2056L59.9895 40.8267L59.592 41.2622Z" fill="#55BBE2" stroke="#55BBE2" stroke-width="1.22604"/>
<path d="M68.5801 30.0963C68.5801 30.0963 68.5801 26.4182 68.5801 24.5791C68.5801 22.7401 56.3196 23.353 56.3196 23.353C56.3196 23.353 55.7066 9.81943 40.3811 8.64055C25.0555 7.46167 23.2164 24.5788 23.2164 24.5788C23.2164 24.5788 11.9669 26.4512 9.11729 35.0005C7.27834 40.5177 8.2901 46.9343 12.7954 50.9391C18.3125 55.8433 21.9907 55.8433 31.1861 55.8433" stroke="#3680B5" stroke-width="6.13022"/>
</svg>
