<svg width="2680" height="2062" viewBox="0 0 2680 2062" fill="none" xmlns="http://www.w3.org/2000/svg">
<path d="M1315.04 609.082H1518.82L1614.47 701.05L1618.07 704.513H1910.54C1927.15 704.513 1942.98 710.86 1954.58 722.013C1966.16 733.15 1972.57 748.149 1972.57 763.681V1145.41C1972.57 1160.94 1966.16 1175.94 1954.58 1187.08C1942.98 1198.23 1927.15 1204.58 1910.54 1204.58H1315.04C1298.44 1204.58 1282.61 1198.23 1271.01 1187.08C1259.43 1175.94 1253.01 1160.94 1253.01 1145.41V668.25C1253.01 652.718 1259.43 637.719 1271.01 626.582C1282.61 615.429 1298.44 609.082 1315.04 609.082ZM1733.83 835.065L1586.2 997.311L1514.9 928.713L1506.3 920.44L1497.7 928.711L1462.57 962.494L1453.26 971.436L1462.57 980.378L1580.57 1093.85L1589.76 1102.69L1598.35 1093.25L1789.5 883.161L1798.18 873.622L1788.31 865.318L1750.99 833.921L1741.86 826.239L1733.83 835.065Z" fill="#01B0F1" stroke="#01B0F1" stroke-width="24.8123"/>
<path d="M1915.73 609.079C1915.73 609.079 1915.73 534.642 1915.73 497.424C1915.73 460.205 1667.61 472.609 1667.61 472.609C1667.61 472.609 1655.2 198.722 1345.05 174.864C1034.89 151.006 997.675 497.417 997.675 497.417C997.675 497.417 770.01 535.309 712.34 708.328C675.124 819.983 695.6 949.84 786.777 1030.89C898.43 1130.14 972.869 1130.14 1158.96 1130.14" stroke="#01B0F1" stroke-width="124.061"/>
<path d="M324.086 1448.74C313.958 1448.74 305.251 1445.45 297.965 1438.88C290.858 1432.31 287.304 1423.95 287.304 1413.83C287.304 1403.7 290.858 1395.26 297.965 1388.5C305.251 1381.75 313.958 1378.38 324.086 1378.38C334.57 1378.38 343.455 1381.75 350.74 1388.5C358.025 1395.26 361.668 1403.7 361.668 1413.83C361.668 1423.42 358.025 1431.68 350.74 1438.61C343.455 1445.37 334.57 1448.74 324.086 1448.74ZM354.738 1778.98H292.901V1506.05H354.738V1778.98ZM425.104 1763.79V1698.49C430.968 1703.82 437.898 1708.62 445.894 1712.88C454.068 1717.15 462.686 1720.79 471.748 1723.81C480.811 1726.65 489.873 1728.87 498.935 1730.47C507.997 1732.07 516.349 1732.87 523.99 1732.87C550.644 1732.87 570.456 1728.43 583.428 1719.54C596.577 1710.66 603.152 1697.78 603.152 1680.9C603.152 1671.83 600.93 1664.02 596.488 1657.44C592.223 1650.69 586.182 1644.56 578.364 1639.05C570.545 1633.54 561.305 1628.3 550.644 1623.32C540.16 1618.17 528.876 1612.84 516.793 1607.33C503.822 1600.4 491.739 1593.38 480.544 1586.28C469.349 1579.17 459.576 1571.35 451.225 1562.82C443.051 1554.11 436.565 1544.34 431.768 1533.5C427.148 1522.66 424.838 1509.96 424.838 1495.39C424.838 1477.44 428.836 1461.89 436.832 1448.74C445.006 1435.41 455.667 1424.49 468.816 1415.96C482.143 1407.25 497.247 1400.85 514.128 1396.77C531.009 1392.5 548.245 1390.37 565.836 1390.37C605.817 1390.37 634.958 1394.9 653.261 1403.96V1466.6C631.582 1450.96 603.685 1443.14 569.568 1443.14C560.15 1443.14 550.732 1444.03 541.315 1445.81C532.075 1447.59 523.723 1450.52 516.26 1454.61C508.975 1458.69 503.022 1463.93 498.402 1470.33C493.782 1476.73 491.472 1484.46 491.472 1493.52C491.472 1502.05 493.249 1509.42 496.803 1515.64C500.357 1521.86 505.51 1527.55 512.262 1532.7C519.192 1537.85 527.544 1542.92 537.317 1547.89C547.267 1552.69 558.729 1557.93 571.7 1563.62C585.027 1570.55 597.554 1577.83 609.282 1585.48C621.187 1593.12 631.582 1601.56 640.467 1610.8C649.529 1620.04 656.637 1630.34 661.79 1641.72C667.121 1652.91 669.786 1665.7 669.786 1680.1C669.786 1699.47 665.877 1715.81 658.058 1729.14C650.24 1742.47 639.667 1753.31 626.34 1761.66C613.191 1770.01 597.998 1776.05 580.762 1779.78C563.526 1783.51 545.313 1785.38 526.122 1785.38C519.725 1785.38 511.818 1784.85 502.4 1783.78C493.16 1782.89 483.654 1781.47 473.881 1779.52C464.107 1777.74 454.868 1775.52 446.161 1772.85C437.454 1770.19 430.435 1767.17 425.104 1763.79ZM956.315 1506.05L833.174 1822.69C807.586 1879.2 771.693 1907.45 725.493 1907.45C712.521 1907.45 701.682 1906.3 692.975 1903.99V1852.55C702.748 1855.75 711.633 1857.34 719.629 1857.34C742.729 1857.34 759.965 1845.97 771.337 1823.23L789.728 1778.45L681.247 1506.05H749.748L814.783 1704.35C815.494 1706.84 817.093 1713.41 819.581 1724.08H820.913C821.802 1719.99 823.401 1713.59 825.711 1704.88L893.945 1506.05H956.315ZM1240.71 1778.98H1178.87V1625.19C1178.87 1574.19 1160.84 1548.69 1124.77 1548.69C1105.93 1548.69 1090.38 1555.8 1078.12 1570.02C1065.86 1584.05 1059.73 1601.82 1059.73 1623.32V1778.98H997.628V1506.05H1059.73V1551.36H1060.8C1081.23 1516.89 1110.73 1499.65 1149.29 1499.65C1178.96 1499.65 1201.62 1509.33 1217.26 1528.7C1232.89 1547.89 1240.71 1575.7 1240.71 1612.13V1778.98ZM1511.78 1766.46C1489.92 1779.07 1464.07 1785.38 1434.22 1785.38C1393.7 1785.38 1361.01 1772.76 1336.13 1747.53C1311.25 1722.12 1298.82 1689.25 1298.82 1648.91C1298.82 1603.96 1312.14 1567.88 1338.8 1540.7C1365.63 1513.33 1401.43 1499.65 1446.21 1499.65C1471.09 1499.65 1493.03 1504 1512.05 1512.71V1570.28C1493.03 1556.07 1472.78 1548.96 1451.28 1548.96C1425.16 1548.96 1403.74 1557.84 1387.04 1575.61C1370.34 1593.21 1361.99 1616.31 1361.99 1644.91C1361.99 1673.17 1369.8 1695.47 1385.44 1711.81C1401.26 1728.16 1422.4 1736.34 1448.88 1736.34C1471.09 1736.34 1492.06 1728.43 1511.78 1712.61V1766.46ZM1791.91 1778.98H1580.28V1396.77H1643.72V1725.41H1791.91V1778.98ZM1871.61 1448.74C1861.48 1448.74 1852.77 1445.45 1845.49 1438.88C1838.38 1432.31 1834.82 1423.95 1834.82 1413.83C1834.82 1403.7 1838.38 1395.26 1845.49 1388.5C1852.77 1381.75 1861.48 1378.38 1871.61 1378.38C1882.09 1378.38 1890.97 1381.75 1898.26 1388.5C1905.55 1395.26 1909.19 1403.7 1909.19 1413.83C1909.19 1423.42 1905.55 1431.68 1898.26 1438.61C1890.97 1445.37 1882.09 1448.74 1871.61 1448.74ZM1902.26 1778.98H1840.42V1506.05H1902.26V1778.98ZM2127.22 1776.05C2115.13 1782.09 2099.23 1785.11 2079.51 1785.11C2026.55 1785.11 2000.08 1759.7 2000.08 1708.88V1554.56H1954.5V1506.05H2000.08V1442.88L2061.91 1425.29V1506.05H2127.22V1554.56H2061.91V1691.02C2061.91 1707.19 2064.85 1718.74 2070.71 1725.67C2076.57 1732.6 2086.35 1736.07 2100.03 1736.07C2110.51 1736.07 2119.58 1733.05 2127.22 1727.01V1776.05ZM2408.41 1659.31H2222.37C2223.08 1684.54 2230.81 1704 2245.56 1717.68C2260.49 1731.36 2280.92 1738.2 2306.86 1738.2C2336 1738.2 2362.75 1729.5 2387.09 1712.08V1761.92C2362.21 1777.56 2329.34 1785.38 2288.47 1785.38C2248.31 1785.38 2216.77 1773.03 2193.85 1748.33C2171.11 1723.45 2159.73 1688.54 2159.73 1643.58C2159.73 1601.11 2172.26 1566.55 2197.32 1539.9C2222.55 1513.07 2253.82 1499.65 2291.14 1499.65C2328.45 1499.65 2357.33 1511.64 2377.76 1535.63C2398.2 1559.62 2408.41 1592.94 2408.41 1635.58V1659.31ZM2348.71 1615.59C2348.53 1593.38 2343.29 1576.15 2332.98 1563.89C2322.68 1551.45 2308.46 1545.23 2290.34 1545.23C2272.57 1545.23 2257.46 1551.71 2245.03 1564.69C2232.77 1577.66 2225.21 1594.63 2222.37 1615.59H2348.71Z" fill="#333333"/>
</svg>
