<svg width="177" height="136" viewBox="0 0 177 136" fill="none" xmlns="http://www.w3.org/2000/svg">
<path d="M86.6404 40.1278H100.065L106.367 46.1874L106.604 46.4149H125.874C126.968 46.4149 128.011 46.8335 128.775 47.5682C129.538 48.302 129.961 49.2901 129.961 50.3134V75.4628C129.961 76.4859 129.538 77.4742 128.775 78.2079C128.011 78.9427 126.968 79.3612 125.874 79.3612H86.6404C85.5464 79.3612 84.5032 78.9427 83.739 78.2079C82.976 77.4742 82.5535 76.486 82.5535 75.4628V44.0262C82.5535 43.003 82.976 42.0149 83.739 41.2811C84.5032 40.5463 85.5464 40.1278 86.6404 40.1278ZM114.231 55.0165L104.504 65.7059L99.8074 61.1864L99.241 60.6415L98.6746 61.1864L96.3591 63.412L95.7468 64.0009L96.3591 64.5907L104.135 72.0663L104.74 72.6483L105.305 72.0272L117.899 58.1854L118.471 57.5565L117.821 57.0096L115.362 54.9413L114.76 54.4344L114.231 55.0165Z" fill="#55BBE2" stroke="#55BBE2" stroke-width="1.63473"/>
<path d="M126.215 40.1283C126.215 40.1283 126.215 35.2241 126.215 32.772C126.215 30.3199 109.868 31.1371 109.868 31.1371C109.868 31.1371 109.05 13.0924 88.6163 11.5206C68.1822 9.94873 65.7301 32.7716 65.7301 32.7716C65.7301 32.7716 50.7307 35.2681 46.9312 46.6672C44.4793 54.0234 45.8283 62.5789 51.8353 67.9186C59.1915 74.4575 64.0958 74.4575 76.3562 74.4575" stroke="#3680B5" stroke-width="8.17363"/>
<path d="M21.3523 95.4212C20.685 95.4212 20.1113 95.2046 19.6313 94.7715C19.1631 94.3383 18.9289 93.7881 18.9289 93.1208C18.9289 92.4535 19.1631 91.8974 19.6313 91.4525C20.1113 91.0077 20.685 90.7852 21.3523 90.7852C22.043 90.7852 22.6283 91.0077 23.1083 91.4525C23.5883 91.8974 23.8283 92.4535 23.8283 93.1208C23.8283 93.753 23.5883 94.2973 23.1083 94.7539C22.6283 95.1988 22.043 95.4212 21.3523 95.4212ZM23.3717 117.179H19.2977V99.1967H23.3717V117.179ZM28.0077 116.178V111.875C28.394 112.227 28.8506 112.543 29.3774 112.824C29.916 113.105 30.4837 113.345 31.0808 113.544C31.6779 113.731 32.2749 113.877 32.872 113.983C33.469 114.088 34.0193 114.141 34.5227 114.141C36.2787 114.141 37.5841 113.848 38.4387 113.263C39.305 112.677 39.7381 111.829 39.7381 110.716C39.7381 110.119 39.5918 109.604 39.2991 109.171C39.0182 108.726 38.6201 108.322 38.105 107.959C37.5899 107.597 36.9811 107.251 36.2787 106.923C35.588 106.584 34.8446 106.233 34.0485 105.87C33.1939 105.413 32.3978 104.951 31.6603 104.482C30.9228 104.014 30.2789 103.499 29.7286 102.937C29.1901 102.363 28.7628 101.72 28.4467 101.005C28.1423 100.291 27.9902 99.4543 27.9902 98.4943C27.9902 97.3119 28.2536 96.2875 28.7804 95.4212C29.3189 94.5432 30.0213 93.8232 30.8876 93.2613C31.7657 92.6876 32.7608 92.2662 33.8729 91.9969C34.9851 91.7159 36.1207 91.5755 37.2797 91.5755C39.9138 91.5755 41.8337 91.874 43.0395 92.471V96.5978C41.6113 95.5676 39.7733 95.0524 37.5255 95.0524C36.905 95.0524 36.2846 95.111 35.6641 95.228C35.0553 95.3451 34.5051 95.5383 34.0134 95.8075C33.5334 96.0768 33.1412 96.4222 32.8369 96.8436C32.5325 97.2651 32.3803 97.7743 32.3803 98.3714C32.3803 98.9333 32.4974 99.4192 32.7315 99.8289C32.9656 100.239 33.3051 100.613 33.75 100.953C34.2066 101.292 34.7568 101.626 35.4007 101.954C36.0563 102.27 36.8114 102.615 37.666 102.99C38.544 103.446 39.3694 103.926 40.142 104.43C40.9264 104.933 41.6113 105.489 42.1966 106.098C42.7937 106.707 43.262 107.386 43.6015 108.135C43.9527 108.873 44.1283 109.715 44.1283 110.664C44.1283 111.94 43.8707 113.017 43.3556 113.895C42.8405 114.773 42.1439 115.487 41.2659 116.037C40.3996 116.588 39.3986 116.986 38.2631 117.231C37.1275 117.477 35.9275 117.6 34.6632 117.6C34.2417 117.6 33.7207 117.565 33.1003 117.495C32.4915 117.436 31.8652 117.343 31.2213 117.214C30.5774 117.097 29.9686 116.95 29.395 116.775C28.8214 116.599 28.3589 116.4 28.0077 116.178ZM63.0058 99.1967L54.8929 120.059C53.2071 123.781 50.8423 125.643 47.7984 125.643C46.9438 125.643 46.2297 125.567 45.656 125.415V122.025C46.2999 122.236 46.8853 122.342 47.4121 122.342C48.934 122.342 50.0696 121.592 50.8188 120.094L52.0305 117.144L44.8834 99.1967H49.3964L53.6812 112.262C53.728 112.426 53.8334 112.859 53.9973 113.561H54.0851C54.1436 113.292 54.249 112.871 54.4012 112.297L58.8967 99.1967H63.0058ZM81.7429 117.179H77.6689V107.046C77.6689 103.686 76.4806 102.006 74.1041 102.006C72.8632 102.006 71.8388 102.475 71.031 103.411C70.2232 104.336 69.8193 105.507 69.8193 106.923V117.179H65.7277V99.1967H69.8193V102.182H69.8896C71.2359 99.9109 73.1793 98.7753 75.7197 98.7753C77.6747 98.7753 79.1674 99.4133 80.1976 100.689C81.2278 101.954 81.7429 103.786 81.7429 106.186V117.179ZM99.602 116.353C98.162 117.185 96.4587 117.6 94.4919 117.6C91.8227 117.6 89.6686 116.769 88.0296 115.107C86.3906 113.432 85.5711 111.267 85.5711 108.609C85.5711 105.647 86.4492 103.271 88.2052 101.48C89.973 99.6767 92.3319 98.7753 95.2821 98.7753C96.9211 98.7753 98.3669 99.0621 99.6196 99.6357V103.429C98.3669 102.492 97.0323 102.024 95.6158 102.024C93.8948 102.024 92.4841 102.609 91.3837 103.78C90.2832 104.939 89.733 106.461 89.733 108.346C89.733 110.207 90.2481 111.676 91.2783 112.753C92.3202 113.831 93.7134 114.369 95.4577 114.369C96.9211 114.369 98.3025 113.848 99.602 112.806V116.353ZM118.058 117.179H104.115V91.9969H108.294V113.649H118.058V117.179ZM123.309 95.4212C122.641 95.4212 122.068 95.2046 121.588 94.7715C121.119 94.3383 120.885 93.7881 120.885 93.1208C120.885 92.4535 121.119 91.8974 121.588 91.4525C122.068 91.0077 122.641 90.7852 123.309 90.7852C123.999 90.7852 124.585 91.0077 125.065 91.4525C125.545 91.8974 125.785 92.4535 125.785 93.1208C125.785 93.753 125.545 94.2973 125.065 94.7539C124.585 95.1988 123.999 95.4212 123.309 95.4212ZM125.328 117.179H121.254V99.1967H125.328V117.179ZM140.149 116.986C139.353 117.384 138.305 117.583 137.006 117.583C133.517 117.583 131.773 115.908 131.773 112.56V102.393H128.77V99.1967H131.773V95.0349L135.847 93.8759V99.1967H140.149V102.393H135.847V111.384C135.847 112.449 136.04 113.21 136.426 113.667C136.813 114.123 137.457 114.351 138.358 114.351C139.049 114.351 139.646 114.152 140.149 113.754V116.986ZM158.676 109.294H146.418C146.465 110.956 146.974 112.238 147.946 113.14C148.93 114.041 150.276 114.492 151.985 114.492C153.905 114.492 155.667 113.918 157.271 112.771V116.055C155.632 117.085 153.466 117.6 150.773 117.6C148.128 117.6 146.05 116.787 144.539 115.159C143.041 113.52 142.292 111.22 142.292 108.258C142.292 105.46 143.117 103.183 144.768 101.427C146.43 99.6592 148.491 98.7753 150.949 98.7753C153.407 98.7753 155.31 99.5655 156.656 101.146C158.002 102.726 158.676 104.921 158.676 107.731V109.294ZM154.742 106.414C154.73 104.951 154.385 103.815 153.706 103.007C153.027 102.188 152.09 101.778 150.896 101.778C149.726 101.778 148.731 102.205 147.911 103.06C147.103 103.915 146.606 105.033 146.418 106.414H154.742Z" fill="#333333"/>
</svg>
